<?xml version="1.0" encoding="UTF-8" standalone="no"?>
<!DOCTYPE svg PUBLIC "-//W3C//DTD SVG 1.1//EN"
 "http://www.w3.org/Graphics/SVG/1.1/DTD/svg11.dtd">
<!-- Generated by graphviz version 2.30.1 (20130214.1330)
 -->
<!-- Title: G Pages: 1 -->
<svg width="402pt" height="204pt"
 viewBox="0.00 0.00 402.00 204.00" xmlns="http://www.w3.org/2000/svg" xmlns:xlink="http://www.w3.org/1999/xlink">
<g id="graph0" class="graph" transform="scale(1 1) rotate(0) translate(4 200)">
<title>G</title>
<polygon fill="white" stroke="white" points="-4,5 -4,-200 399,-200 399,5 -4,5"/>
<g id="clust1" class="cluster"><title>cluster_global</title>
<path fill="none" stroke="gray" d="M220,-8C220,-8 374,-8 374,-8 380,-8 386,-14 386,-20 386,-20 386,-176 386,-176 386,-182 380,-188 374,-188 374,-188 220,-188 220,-188 214,-188 208,-182 208,-176 208,-176 208,-20 208,-20 208,-14 214,-8 220,-8"/>
<text text-anchor="middle" x="297" y="-175.2" font-family="Times New Roman,serif" font-size="11.00" fill="gray">global</text>
</g>
<!-- \\Code_Snippets -->
<g id="node1" class="node"><title>\\Code_Snippets</title>
<g id="a_node1"><a xlink:href="code-snippets.html" xlink:title="Code_Snippets" target="_parent">
<polygon fill="none" stroke="black" points="344.5,-160 249.5,-160 249.5,-124 344.5,-124 344.5,-160"/>
<text text-anchor="middle" x="297" y="-139.2" font-family="Courier,monospace" font-size="11.00">Code_Snippets</text>
</a>
</g>
</g>
<!-- \\Code_Snippets_Admin -->
<g id="node2" class="node"><title>\\Code_Snippets_Admin</title>
<g id="a_node2"><a xlink:href="includes.class-admin.html" xlink:title="Code_Snippets_Admin" target="_parent">
<polygon fill="none" stroke="black" points="362.5,-106 231.5,-106 231.5,-70 362.5,-70 362.5,-106"/>
<text text-anchor="middle" x="297" y="-85.2" font-family="Courier,monospace" font-size="11.00">Code_Snippets_Admin</text>
</a>
</g>
</g>
<!-- \\Code_Snippets_List_Table -->
<g id="node3" class="node"><title>\\Code_Snippets_List_Table</title>
<g id="a_node3"><a xlink:href="includes.class-list-table.html" xlink:title="Code_Snippets_List_Table" target="_parent">
<polygon fill="none" stroke="black" points="377.5,-52 216.5,-52 216.5,-16 377.5,-16 377.5,-52"/>
<text text-anchor="middle" x="297" y="-31.2" font-family="Courier,monospace" font-size="11.00">Code_Snippets_List_Table</text>
</a>
</g>
</g>
<!-- \\WP_List_Table -->
<g id="node4" class="node"><title>\\WP_List_Table</title>
<ellipse fill="none" stroke="black" cx="72" cy="-34" rx="71.4873" ry="18"/>
<text text-anchor="middle" x="72" y="-30.3" font-family="Times New Roman,serif" font-size="14.00" fill="gray">\WP_List_Table</text>
</g>
<!-- \\Code_Snippets_List_Table&#45;&gt;\\WP_List_Table -->
<g id="edge1" class="edge"><title>\\Code_Snippets_List_Table&#45;&gt;\\WP_List_Table</title>
<path fill="none" stroke="black" d="M216.436,-34C196.105,-34 174.228,-34 153.834,-34"/>
<polygon fill="none" stroke="black" points="153.639,-30.5001 143.639,-34 153.639,-37.5001 153.639,-30.5001"/>
</g>
</g>
</svg>
