<?xml version="1.0" encoding="UTF-8" standalone="no"?>
<!DOCTYPE svg PUBLIC "-//W3C//DTD SVG 1.1//EN"
 "http://www.w3.org/Graphics/SVG/1.1/DTD/svg11.dtd">
<!-- Generated by graphviz version 2.30.1 (20130214.1330)
 -->
<!-- Title: G Pages: 1 -->
<svg width="672pt" height="348pt"
 viewBox="0.00 0.00 672.00 348.00" xmlns="http://www.w3.org/2000/svg" xmlns:xlink="http://www.w3.org/1999/xlink">
<g id="graph0" class="graph" transform="scale(1 1) rotate(0) translate(4 344)">
<title>G</title>
<polygon fill="white" stroke="white" points="-4,5 -4,-344 669,-344 669,5 -4,5"/>
<g id="clust1" class="cluster"><title>cluster_Global</title>
<path fill="none" stroke="gray" d="M238,-44C238,-44 644,-44 644,-44 650,-44 656,-50 656,-56 656,-56 656,-320 656,-320 656,-326 650,-332 644,-332 644,-332 238,-332 238,-332 232,-332 226,-326 226,-320 226,-320 226,-56 226,-56 226,-50 232,-44 238,-44"/>
<text text-anchor="middle" x="441" y="-319.2" font-family="Times New Roman,serif" font-size="11.00" fill="gray">\</text>
</g>
<!-- \\Code_Snippets -->
<g id="node1" class="node"><title>\\Code_Snippets</title>
<polygon fill="none" stroke="black" points="599.5,-304 504.5,-304 504.5,-268 599.5,-268 599.5,-304"/>
<text text-anchor="middle" x="552" y="-283.2" font-family="Courier,monospace" font-size="11.00">Code_Snippets</text>
</g>
<!-- \\Code_Snippets_List_Table -->
<g id="node2" class="node"><title>\\Code_Snippets_List_Table</title>
<polygon fill="none" stroke="black" points="632.5,-196 471.5,-196 471.5,-160 632.5,-160 632.5,-196"/>
<text text-anchor="middle" x="552" y="-175.2" font-family="Courier,monospace" font-size="11.00">Code_Snippets_List_Table</text>
</g>
<!-- \\WP_List_Table -->
<g id="node7" class="node"><title>\\WP_List_Table</title>
<ellipse fill="none" stroke="black" cx="309" cy="-18" rx="71.4873" ry="18"/>
<text text-anchor="middle" x="309" y="-14.3" font-family="Times New Roman,serif" font-size="14.00" fill="gray">\WP_List_Table</text>
</g>
<!-- \\Code_Snippets_List_Table&#45;&gt;\\WP_List_Table -->
<g id="edge1" class="edge"><title>\\Code_Snippets_List_Table&#45;&gt;\\WP_List_Table</title>
<path fill="none" stroke="black" d="M471.162,-160.116C465.809,-157.483 460.689,-154.463 456,-151 408.699,-116.066 431.089,-75.2192 384,-40 380.83,-37.6294 377.407,-35.5129 373.831,-33.6235"/>
<polygon fill="none" stroke="black" points="375.23,-30.4139 364.685,-29.3794 372.283,-36.7636 375.23,-30.4139"/>
</g>
<!-- \\Code_Snippets_Test_Unit_Tests -->
<g id="node3" class="node"><title>\\Code_Snippets_Test_Unit_Tests</title>
<polygon fill="none" stroke="black" points="647.5,-250 456.5,-250 456.5,-214 647.5,-214 647.5,-250"/>
<text text-anchor="middle" x="552" y="-229.2" font-family="Courier,monospace" font-size="11.00">Code_Snippets_Test_Unit_Tests</text>
</g>
<!-- \\Code_Snippets_TestCase -->
<g id="node6" class="node"><title>\\Code_Snippets_TestCase</title>
<polygon fill="none" stroke="black" points="383.5,-250 234.5,-250 234.5,-214 383.5,-214 383.5,-250"/>
<text text-anchor="middle" x="309" y="-229.2" font-family="Courier,monospace" font-size="11.00">Code_Snippets_TestCase</text>
</g>
<!-- \\Code_Snippets_Test_Unit_Tests&#45;&gt;\\Code_Snippets_TestCase -->
<g id="edge2" class="edge"><title>\\Code_Snippets_Test_Unit_Tests&#45;&gt;\\Code_Snippets_TestCase</title>
<path fill="none" stroke="black" d="M456.442,-232C435.798,-232 414.087,-232 393.892,-232"/>
<polygon fill="none" stroke="black" points="393.798,-228.5 383.798,-232 393.798,-235.5 393.798,-228.5"/>
</g>
<!-- \\A -->
<g id="node4" class="node"><title>\\A</title>
<polygon fill="none" stroke="black" points="579,-142 525,-142 525,-106 579,-106 579,-142"/>
<text text-anchor="middle" x="552" y="-121.2" font-family="Courier,monospace" font-size="11.00">A</text>
</g>
<!-- \\Code_Snippets_Admin -->
<g id="node5" class="node"><title>\\Code_Snippets_Admin</title>
<polygon fill="none" stroke="black" points="617.5,-88 486.5,-88 486.5,-52 617.5,-52 617.5,-88"/>
<text text-anchor="middle" x="552" y="-67.2" font-family="Courier,monospace" font-size="11.00">Code_Snippets_Admin</text>
</g>
<!-- \\WP_UnitTestCase -->
<g id="node8" class="node"><title>\\WP_UnitTestCase</title>
<ellipse fill="none" stroke="black" cx="81" cy="-232" rx="81.4863" ry="18"/>
<text text-anchor="middle" x="81" y="-228.3" font-family="Times New Roman,serif" font-size="14.00" fill="gray">\WP_UnitTestCase</text>
</g>
<!-- \\Code_Snippets_TestCase&#45;&gt;\\WP_UnitTestCase -->
<g id="edge3" class="edge"><title>\\Code_Snippets_TestCase&#45;&gt;\\WP_UnitTestCase</title>
<path fill="none" stroke="black" d="M234.312,-232C214.697,-232 193.278,-232 172.861,-232"/>
<polygon fill="none" stroke="black" points="172.613,-228.5 162.613,-232 172.613,-235.5 172.613,-228.5"/>
</g>
</g>
</svg>
